<?xml version="1.0" encoding="UTF-8"?>
<svg xmlns="http://www.w3.org/2000/svg" width="390" height="844" viewBox="0 0 390 844" role="img" aria-label="Mobile AI focused inspection processing CP1">
  <rect width="390" height="844" fill="#0B1220"/>
  <text x="18" y="19" fill="#FFFFFF" font-family="IBM Plex Sans, Arial, sans-serif" font-size="11" font-weight="600" text-anchor="start" opacity="1" letter-spacing="0">09:41</text><line x1="332" y1="13" x2="341" y2="13" stroke="#FFFFFF" stroke-width="1.8" stroke-linecap="round" opacity="1"/><line x1="345" y1="16" x2="353" y2="10" stroke="#FFFFFF" stroke-width="1.6" stroke-linecap="round" opacity="1"/><rect x="360" y="9" width="17" height="9" rx="2" fill="none" stroke="#FFFFFF" stroke-width="1.3" opacity="1"/><rect x="378" y="12" width="2" height="4" rx="1" fill="#FFFFFF" stroke="none" stroke-width="1" opacity="1"/><path d="M22 45 L18 49 L22 53" fill="none" stroke="#FFFFFF" stroke-width="1.8" stroke-linecap="round" stroke-linejoin="round"/><text x="42" y="55" fill="#FFFFFF" font-family="Space Grotesk, Arial, sans-serif" font-size="18" font-weight="600" text-anchor="start" opacity="1" letter-spacing="0">Memeriksa struk</text><text x="372" y="55" fill="#FFFFFF" font-family="IBM Plex Sans, Arial, sans-serif" font-size="13" font-weight="600" text-anchor="end" opacity="1" letter-spacing="0">Batal</text><text x="18" y="91" fill="#AAB3BF" font-family="IBM Plex Sans, Arial, sans-serif" font-size="10" font-weight="600" text-anchor="start" opacity="1" letter-spacing="1">LANGKAH 3 DARI 4</text><rect x="18" y="114" width="354" height="348" rx="16" fill="#121D2A" stroke="#647083" stroke-width="1" opacity="1"/><line x1="30" y1="126" x2="60" y2="126" stroke="#B9D86E" stroke-width="2" stroke-linecap="round" opacity="1"/><line x1="30" y1="126" x2="30" y2="156" stroke="#B9D86E" stroke-width="2" stroke-linecap="round" opacity="1"/><line x1="360" y1="126" x2="330" y2="126" stroke="#B9D86E" stroke-width="2" stroke-linecap="round" opacity="1"/><line x1="360" y1="126" x2="360" y2="156" stroke="#B9D86E" stroke-width="2" stroke-linecap="round" opacity="1"/><line x1="30" y1="450" x2="60" y2="450" stroke="#B9D86E" stroke-width="2" stroke-linecap="round" opacity="1"/><line x1="30" y1="450" x2="30" y2="420" stroke="#B9D86E" stroke-width="2" stroke-linecap="round" opacity="1"/><line x1="360" y1="450" x2="330" y2="450" stroke="#B9D86E" stroke-width="2" stroke-linecap="round" opacity="1"/><line x1="360" y1="450" x2="360" y2="420" stroke="#B9D86E" stroke-width="2" stroke-linecap="round" opacity="1"/><rect x="108" y="142" width="174" height="290" rx="5" fill="#EDE9DE" stroke="#9199A4" stroke-width="1" opacity="1"/><rect x="122" y="156" width="73.08" height="8" rx="3" fill="#A9A69E" stroke="none" stroke-width="1" opacity="1"/><line x1="122" y1="182" x2="268" y2="182" stroke="#C9C5BC" stroke-width="1" stroke-linecap="round" opacity="1"/><line x1="122" y1="204" x2="236" y2="204" stroke="#C9C5BC" stroke-width="1" stroke-linecap="round" opacity="1"/><line x1="122" y1="226" x2="268" y2="226" stroke="#C9C5BC" stroke-width="1" stroke-linecap="round" opacity="1"/><line x1="122" y1="248" x2="236" y2="248" stroke="#C9C5BC" stroke-width="1" stroke-linecap="round" opacity="1"/><line x1="122" y1="270" x2="268" y2="270" stroke="#C9C5BC" stroke-width="2" stroke-linecap="round" opacity="1"/><line x1="122" y1="402" x2="268" y2="402" stroke="#98958E" stroke-width="2" stroke-linecap="round" opacity="1"/><line x1="70" y1="286" x2="320" y2="286" stroke="#B9D86E" stroke-width="2" stroke-linecap="round" opacity="1"/><rect x="138" y="444" width="114" height="28" rx="8" fill="#EDF5D5" stroke="none" stroke-width="1" opacity="1"/><text x="195" y="462" fill="#526827" font-family="IBM Plex Sans, Arial, sans-serif" font-size="11" font-weight="600" text-anchor="middle" opacity="1" letter-spacing="0">Membaca struk</text><text x="18" y="511" fill="#FFFFFF" font-family="Space Grotesk, Arial, sans-serif" font-size="21" font-weight="600" text-anchor="start" opacity="1" letter-spacing="0">AI sedang menyusun hasil</text><text x="18" y="540" fill="#B9C0CA" font-family="IBM Plex Sans, Arial, sans-serif" font-size="13" font-weight="400" text-anchor="start" opacity="1" letter-spacing="0">Kami akan meminta kamu meninjau merchant,</text><text x="18" y="559" fill="#B9C0CA" font-family="IBM Plex Sans, Arial, sans-serif" font-size="13" font-weight="400" text-anchor="start" opacity="1" letter-spacing="0">total, tanggal, dan kategori sebelum disimpan.</text><line x1="29" y1="602" x2="29" y2="726" stroke="#647083" stroke-width="2" stroke-linecap="round" opacity="1"/><circle cx="29" cy="612" r="11" fill="#B9D86E" stroke="none" stroke-width="1" opacity="1"/><path d="M24 612 L28 616 L35 608" fill="none" stroke="#0B1220" stroke-width="2" stroke-linecap="round" stroke-linejoin="round"/><text x="52" y="617" fill="#FFFFFF" font-family="IBM Plex Sans, Arial, sans-serif" font-size="13" font-weight="500" text-anchor="start" opacity="1" letter-spacing="0">Foto dikompres</text><circle cx="29" cy="656" r="11" fill="#B9D86E" stroke="none" stroke-width="1" opacity="1"/><path d="M24 656 L28 660 L35 652" fill="none" stroke="#0B1220" stroke-width="2" stroke-linecap="round" stroke-linejoin="round"/><text x="52" y="661" fill="#FFFFFF" font-family="IBM Plex Sans, Arial, sans-serif" font-size="13" font-weight="500" text-anchor="start" opacity="1" letter-spacing="0">Diunggah dengan aman</text><circle cx="29" cy="700" r="11" fill="#285A73" stroke="none" stroke-width="1" opacity="1"/><circle cx="29" cy="700" r="3" fill="#FFFFFF" stroke="none" stroke-width="1" opacity="1"/><text x="52" y="705" fill="#FFFFFF" font-family="IBM Plex Sans, Arial, sans-serif" font-size="13" font-weight="600" text-anchor="start" opacity="1" letter-spacing="0">Membaca dan mengelompokkan data</text><text x="195" y="780" fill="#8994A3" font-family="IBM Plex Sans, Arial, sans-serif" font-size="11" font-weight="400" text-anchor="middle" opacity="1" letter-spacing="0">Tidak ada persentase estimasi yang ditampilkan.</text>
</svg>